<svg xmlns="http://www.w3.org/2000/svg" viewBox="0 0 128 128">
  <rect width="128" height="128" rx="23" fill="#000"/>
  <g fill="#FAA901" transform="translate(6.5,86.5)">
    <path d="M30-5L5-5L5-10L0-10L0-15L10-15L10-10L25-10L25-20L5-20L5-25L0-25L0-35L5-35L5-40L30-40L30-35L35-35L35-30L25-30L25-35L10-35L10-25L30-25L30-20L35-20L35-10L30-10L30-5ZM70-5L45-5L45-10L40-10L40-35L45-35L45-40L70-40L70-35L75-35L75-10L70-10L70-5ZM50-35L50-10L65-10L65-35L50-35ZM115-5L90-5L90-10L85-10L85-15L80-15L80-30L85-30L85-35L90-35L90-40L115-40L115-35L95-35L95-30L90-30L90-15L95-15L95-10L105-10L105-20L100-20L100-25L115-25L115-5Z"/>
  </g>
</svg>
